<svg width="3157" height="1000" viewBox="0 0 3157 1000" fill="none" xmlns="http://www.w3.org/2000/svg">
<rect width="1000" height="1000" rx="500" fill="url(#paint0_linear_4603_17)"/>
<g filter="url(#filter0_d_4603_17)">
<path fill-rule="evenodd" clip-rule="evenodd" d="M465 230.3V780.091V813V830.157C465 835.282 468.874 839.593 473.984 839.986C482.734 840.658 491.577 841 500.5 841C509.073 841 517.573 840.684 525.988 840.063C531.11 839.685 535 835.368 535 830.232V813V780.177V230.171C580.932 235.996 623.284 253.297 659.092 279.11C663.17 282.05 668.8 281.703 672.354 278.148L708.132 242.371C712.322 238.18 711.977 231.276 707.264 227.685C656.206 188.787 593.86 163.947 526 158.938C525.996 158.937 525.992 158.937 525.988 158.937C519.957 158.492 513.882 158.203 507.768 158.076C505.352 158.025 502.929 158 500.5 158C422.519 158 350.642 184.138 293.153 228.13C288.454 231.726 288.117 238.619 292.301 242.804L328.065 278.568C331.627 282.13 337.271 282.47 341.349 279.514C377.016 253.666 419.215 236.279 465 230.3Z" fill="white"/>
</g>
<g filter="url(#filter1_d_4603_17)">
<path fill-rule="evenodd" clip-rule="evenodd" d="M720.907 340.931C717.968 336.853 718.314 331.224 721.869 327.67L757.647 291.891C761.838 287.701 768.743 288.046 772.333 292.761C816.046 350.148 842 421.793 842 499.5C842 646.442 749.193 771.709 618.998 819.881C612.628 822.238 606 817.426 606 810.634V756.374C606 752.354 608.418 748.739 612.082 747.085C706.375 704.522 772 609.675 772 499.5C772 440.31 753.059 385.543 720.907 340.931Z" fill="white"/>
</g>
<g filter="url(#filter2_d_4603_17)">
<path fill-rule="evenodd" clip-rule="evenodd" d="M242.939 292.436C238.743 288.24 231.827 288.593 228.241 293.321C184.786 350.614 159 422.046 159 499.5C159 646.829 252.295 772.367 383.03 820.259C389.396 822.591 396 817.78 396 811.001V758V756.822V475C396 469.477 391.523 465 386 465H360.823H336H310.768C305.632 465 301.315 468.89 300.937 474.012C300.316 482.427 300 490.927 300 499.5C300 508.423 300.342 517.266 301.014 526.016C301.407 531.126 305.718 535 310.843 535H326V707.503C266.697 657.7 229 583.002 229 499.5C229 440.547 247.79 385.982 279.707 341.468C282.631 337.391 282.278 331.775 278.73 328.227L242.939 292.436Z" fill="white"/>
</g>
<path d="M3060.95 549.91C3078.98 549.91 3093.86 552.164 3105.58 556.671C3117.4 561.079 3126.21 567.84 3132.02 576.955C3137.83 586.071 3140.73 597.69 3140.73 611.814C3140.73 623.433 3138.63 633.149 3134.42 640.962C3130.22 648.675 3124.71 654.936 3117.9 659.744C3111.08 664.552 3103.82 668.258 3096.11 670.862L3156.36 769.577H3126.61L3072.82 677.924H3027.14V769.577H3001.6V549.91H3060.95ZM3059.45 571.997H3027.14V656.288H3062C3079.93 656.288 3093.1 652.632 3101.52 645.32C3110.03 638.007 3114.29 627.239 3114.29 613.016C3114.29 598.091 3109.78 587.523 3100.77 581.313C3091.85 575.102 3078.08 571.997 3059.45 571.997Z" fill="#181818"/>
<path d="M2966.53 769.577H2844.23V549.91H2966.53V572.448H2869.77V643.517H2960.97V665.754H2869.77V747.04H2966.53V769.577Z" fill="#181818"/>
<path d="M2809.36 769.577H2779.91L2660.16 585.069H2658.96C2659.26 589.977 2659.61 595.586 2660.01 601.897C2660.41 608.107 2660.71 614.769 2660.91 621.88C2661.21 628.892 2661.36 636.054 2661.36 643.366V769.577H2637.62V549.91H2666.92L2786.22 733.818H2787.27C2787.07 730.312 2786.82 725.353 2786.52 718.943C2786.22 712.432 2785.92 705.47 2785.62 698.058C2785.42 690.545 2785.32 683.584 2785.32 677.173V549.91H2809.36V769.577Z" fill="#181818"/>
<path d="M2514.1 549.91C2532.13 549.91 2547 552.164 2558.72 556.671C2570.54 561.079 2579.36 567.84 2585.17 576.955C2590.98 586.071 2593.88 597.69 2593.88 611.814C2593.88 623.433 2591.78 633.149 2587.57 640.962C2583.36 648.675 2577.86 654.936 2571.04 659.744C2564.23 664.552 2556.97 668.258 2549.26 670.862L2609.51 769.577H2579.76L2525.97 677.924H2480.29V769.577H2454.75V549.91H2514.1ZM2512.6 571.997H2480.29V656.288H2515.15C2533.08 656.288 2546.25 652.632 2554.67 645.32C2563.18 638.007 2567.44 627.239 2567.44 613.016C2567.44 598.091 2562.93 587.523 2553.92 581.313C2545 575.102 2531.23 571.997 2512.6 571.997Z" fill="#181818"/>
<path d="M2419.16 659.443C2419.16 676.372 2417 691.798 2412.7 705.721C2408.39 719.544 2401.98 731.464 2393.46 741.481C2385.05 751.397 2374.58 759.06 2362.06 764.469C2349.54 769.878 2335.02 772.583 2318.49 772.583C2301.46 772.583 2286.59 769.878 2273.86 764.469C2261.24 759.06 2250.73 751.347 2242.31 741.33C2234 731.314 2227.74 719.344 2223.53 705.42C2219.42 691.497 2217.37 676.071 2217.37 659.143C2217.37 636.705 2221.08 617.023 2228.49 600.094C2235.9 583.166 2247.12 569.994 2262.14 560.578C2277.27 551.162 2296.2 546.455 2318.94 546.455C2340.68 546.455 2358.96 551.112 2373.78 560.428C2388.71 569.744 2399.98 582.865 2407.59 599.794C2415.3 616.622 2419.16 636.505 2419.16 659.443ZM2244.27 659.443C2244.27 678.075 2246.92 694.202 2252.23 707.824C2257.54 721.447 2265.65 731.965 2276.57 739.377C2287.59 746.789 2301.56 750.496 2318.49 750.496C2335.52 750.496 2349.44 746.789 2360.26 739.377C2371.18 731.965 2379.24 721.447 2384.45 707.824C2389.66 694.202 2392.26 678.075 2392.26 659.443C2392.26 631.096 2386.3 608.959 2374.38 593.032C2362.56 577.006 2344.08 568.992 2318.94 568.992C2301.91 568.992 2287.89 572.648 2276.87 579.961C2265.85 587.273 2257.64 597.69 2252.23 611.213C2246.92 624.635 2244.27 640.712 2244.27 659.443Z" fill="#181818"/>
<path d="M2142.36 569.293C2130.24 569.293 2119.32 571.396 2109.6 575.603C2099.99 579.71 2091.77 585.72 2084.96 593.633C2078.25 601.446 2073.09 610.912 2069.49 622.031C2065.88 633.149 2064.08 645.67 2064.08 659.593C2064.08 678.024 2066.93 694.051 2072.64 707.674C2078.45 721.196 2087.07 731.664 2098.49 739.076C2110 746.489 2124.38 750.195 2141.61 750.195C2151.42 750.195 2160.64 749.394 2169.25 747.791C2177.97 746.088 2186.43 743.985 2194.65 741.48V763.717C2186.63 766.723 2178.22 768.926 2169.4 770.329C2160.59 771.831 2150.12 772.582 2138 772.582C2115.66 772.582 2096.98 767.975 2081.96 758.759C2067.03 749.444 2055.81 736.322 2048.3 719.393C2040.89 702.465 2037.18 682.482 2037.18 659.443C2037.18 642.815 2039.49 627.64 2044.09 613.917C2048.8 600.094 2055.61 588.174 2064.53 578.157C2073.54 568.141 2084.56 560.428 2097.58 555.019C2110.71 549.509 2125.73 546.755 2142.66 546.755C2153.78 546.755 2164.5 547.857 2174.81 550.06C2185.13 552.264 2194.45 555.419 2202.76 559.526L2192.54 581.162C2185.53 577.957 2177.82 575.202 2169.4 572.899C2161.09 570.495 2152.07 569.293 2142.36 569.293Z" fill="#181818"/>
<path d="M1915.38 769.577H1889.84V666.054H1774.45V769.577H1748.91V549.91H1774.45V643.517H1889.84V549.91H1915.38V769.577Z" fill="#181818"/>
<path d="M1659.78 569.293C1647.66 569.293 1636.74 571.396 1627.03 575.603C1617.41 579.71 1609.2 585.72 1602.39 593.633C1595.68 601.446 1590.52 610.912 1586.91 622.031C1583.3 633.149 1581.5 645.67 1581.5 659.593C1581.5 678.024 1584.36 694.051 1590.07 707.674C1595.88 721.196 1604.49 731.664 1615.91 739.076C1627.43 746.489 1641.8 750.195 1659.03 750.195C1668.85 750.195 1678.06 749.394 1686.68 747.791C1695.39 746.088 1703.86 743.985 1712.07 741.48V763.717C1704.06 766.723 1695.64 768.926 1686.83 770.329C1678.01 771.831 1667.55 772.582 1655.42 772.582C1633.09 772.582 1614.41 767.975 1599.38 758.759C1584.46 749.444 1573.24 736.322 1565.73 719.393C1558.31 702.465 1554.61 682.482 1554.61 659.443C1554.61 642.815 1556.91 627.64 1561.52 613.917C1566.23 600.094 1573.04 588.174 1581.95 578.157C1590.97 568.141 1601.99 560.428 1615.01 555.019C1628.13 549.509 1643.15 546.755 1660.08 546.755C1671.2 546.755 1681.92 547.857 1692.24 550.06C1702.55 552.264 1711.87 555.419 1720.18 559.526L1709.97 581.162C1702.95 577.957 1695.24 575.202 1686.83 572.899C1678.51 570.495 1669.5 569.293 1659.78 569.293Z" fill="#181818"/>
<path d="M1523.93 769.577H1401.63V549.91H1523.93V572.448H1427.17V643.517H1518.37V665.754H1427.17V747.04H1523.93V769.577Z" fill="#181818"/>
<path d="M1297.81 769.577H1272.12V572.448H1203V549.91H1366.62V572.448H1297.81V769.577Z" fill="#181818"/>
<path d="M2211.6 395.151C2211.6 407.071 2208.59 418.39 2202.58 429.108C2196.57 439.725 2187.21 448.34 2174.49 454.951C2161.86 461.562 2145.54 464.867 2125.5 464.867C2115.49 464.867 2106.67 464.417 2099.06 463.515C2091.55 462.614 2084.54 461.161 2078.02 459.158C2071.51 457.054 2064.75 454.35 2057.74 451.044V398.156C2069.66 404.166 2081.68 408.774 2093.8 411.979C2105.92 415.084 2116.89 416.637 2126.71 416.637C2132.62 416.637 2137.42 415.936 2141.13 414.533C2144.94 413.131 2147.74 411.228 2149.54 408.824C2151.35 406.32 2152.25 403.465 2152.25 400.259C2152.25 396.453 2150.9 393.248 2148.19 390.643C2145.59 387.939 2141.38 385.134 2135.57 382.229C2129.76 379.325 2122.1 375.718 2112.58 371.411C2104.47 367.605 2097.11 363.698 2090.49 359.692C2083.98 355.685 2078.37 351.127 2073.67 346.019C2069.06 340.81 2065.5 334.75 2063 327.838C2060.49 320.927 2059.24 312.763 2059.24 303.348C2059.24 289.224 2062.7 277.404 2069.61 267.888C2076.62 258.272 2086.34 251.06 2098.76 246.252C2111.28 241.444 2125.7 239.04 2142.03 239.04C2156.36 239.04 2169.23 240.643 2180.65 243.848C2192.16 247.053 2202.48 250.71 2211.6 254.816L2193.42 300.643C2184 296.336 2174.74 292.93 2165.62 290.426C2156.51 287.822 2148.04 286.519 2140.23 286.519C2135.12 286.519 2130.91 287.17 2127.61 288.473C2124.4 289.675 2122 291.327 2120.39 293.431C2118.89 295.534 2118.14 297.938 2118.14 300.643C2118.14 304.049 2119.44 307.104 2122.05 309.808C2124.75 312.513 2129.21 315.468 2135.42 318.673C2141.73 321.778 2150.29 325.835 2161.11 330.843C2171.83 335.652 2180.95 340.86 2188.46 346.47C2195.97 351.979 2201.68 358.64 2205.59 366.453C2209.59 374.166 2211.6 383.732 2211.6 395.151Z" fill="#181818"/>
<path d="M1987.07 461.863H1909.24L1829 307.104H1827.65C1828.15 311.812 1828.6 317.472 1829 324.083C1829.4 330.694 1829.76 337.455 1830.06 344.367C1830.36 351.178 1830.51 357.338 1830.51 362.847V461.863H1777.92V242.196H1855.45L1935.38 394.851H1936.28C1935.98 390.043 1935.68 384.484 1935.38 378.173C1935.08 371.762 1934.78 365.302 1934.48 358.791C1934.28 352.28 1934.18 346.52 1934.18 341.512V242.196H1987.07V461.863Z" fill="#181818"/>
<path d="M1743.05 461.863H1612.63V242.196H1743.05V289.825H1671.98V324.383H1737.79V372.013H1671.98V413.482H1743.05V461.863Z" fill="#181818"/>
<path d="M1442.07 461.863V242.196H1501.42V413.933H1586.01V461.863H1442.07Z" fill="#181818"/>
<path d="M1312.23 333.247H1407.04V451.645C1395.72 455.552 1382.75 458.757 1368.13 461.261C1353.5 463.665 1338.18 464.867 1322.15 464.867C1301.01 464.867 1282.48 460.761 1266.56 452.547C1250.63 444.333 1238.21 431.862 1229.29 415.134C1220.38 398.306 1215.92 377.071 1215.92 351.428C1215.92 328.389 1220.33 308.506 1229.14 291.778C1237.96 274.95 1250.93 261.978 1268.06 252.863C1285.29 243.648 1306.37 239.04 1331.31 239.04C1345.04 239.04 1358.06 240.342 1370.38 242.947C1382.7 245.551 1393.42 248.856 1402.53 252.863L1383.75 299.441C1375.84 295.534 1367.63 292.63 1359.11 290.726C1350.6 288.723 1341.43 287.721 1331.62 287.721C1318.49 287.721 1307.93 290.676 1299.91 296.586C1292 302.496 1286.24 310.409 1282.63 320.326C1279.03 330.142 1277.22 341.01 1277.22 352.93C1277.22 366.553 1279.13 378.072 1282.93 387.488C1286.84 396.804 1292.5 403.916 1299.91 408.824C1307.42 413.632 1316.49 416.036 1327.11 416.036C1330.61 416.036 1334.87 415.785 1339.88 415.285C1344.99 414.784 1348.84 414.183 1351.45 413.482V379.074H1312.23V333.247Z" fill="#181818"/>
<path d="M2011 276.268V236C2011 231.582 2014.59 228 2019 228H2039.6C2044.75 228 2048.56 232.806 2047.39 237.826L2037.95 278.093C2037.1 281.71 2033.87 284.268 2030.16 284.268H2019C2014.59 284.268 2011 280.686 2011 276.268Z" fill="#181818"/>
<defs>
<filter id="filter0_d_4603_17" x="239.381" y="108" width="521.672" height="783" filterUnits="userSpaceOnUse" color-interpolation-filters="sRGB">
<feFlood flood-opacity="0" result="BackgroundImageFix"/>
<feColorMatrix in="SourceAlpha" type="matrix" values="0 0 0 0 0 0 0 0 0 0 0 0 0 0 0 0 0 0 127 0" result="hardAlpha"/>
<feOffset/>
<feGaussianBlur stdDeviation="25"/>
<feComposite in2="hardAlpha" operator="out"/>
<feColorMatrix type="matrix" values="0 0 0 0 0 0 0 0 0 0 0 0 0 0 0 0 0 0 0.1 0"/>
<feBlend mode="normal" in2="BackgroundImageFix" result="effect1_dropShadow_4603_17"/>
<feBlend mode="normal" in="SourceGraphic" in2="effect1_dropShadow_4603_17" result="shape"/>
</filter>
<filter id="filter1_d_4603_17" x="556" y="238.971" width="336" height="631.516" filterUnits="userSpaceOnUse" color-interpolation-filters="sRGB">
<feFlood flood-opacity="0" result="BackgroundImageFix"/>
<feColorMatrix in="SourceAlpha" type="matrix" values="0 0 0 0 0 0 0 0 0 0 0 0 0 0 0 0 0 0 127 0" result="hardAlpha"/>
<feOffset/>
<feGaussianBlur stdDeviation="25"/>
<feComposite in2="hardAlpha" operator="out"/>
<feColorMatrix type="matrix" values="0 0 0 0 0 0 0 0 0 0 0 0 0 0 0 0 0 0 0.1 0"/>
<feBlend mode="normal" in2="BackgroundImageFix" result="effect1_dropShadow_4603_17"/>
<feBlend mode="normal" in="SourceGraphic" in2="effect1_dropShadow_4603_17" result="shape"/>
</filter>
<filter id="filter2_d_4603_17" x="109" y="239.516" width="337" height="631.339" filterUnits="userSpaceOnUse" color-interpolation-filters="sRGB">
<feFlood flood-opacity="0" result="BackgroundImageFix"/>
<feColorMatrix in="SourceAlpha" type="matrix" values="0 0 0 0 0 0 0 0 0 0 0 0 0 0 0 0 0 0 127 0" result="hardAlpha"/>
<feOffset/>
<feGaussianBlur stdDeviation="25"/>
<feComposite in2="hardAlpha" operator="out"/>
<feColorMatrix type="matrix" values="0 0 0 0 0 0 0 0 0 0 0 0 0 0 0 0 0 0 0.1 0"/>
<feBlend mode="normal" in2="BackgroundImageFix" result="effect1_dropShadow_4603_17"/>
<feBlend mode="normal" in="SourceGraphic" in2="effect1_dropShadow_4603_17" result="shape"/>
</filter>
<linearGradient id="paint0_linear_4603_17" x1="81.8308" y1="-51.282" x2="874.089" y2="901.935" gradientUnits="userSpaceOnUse">
<stop stop-color="#BF1725"/>
<stop offset="1" stop-color="#830B15"/>
</linearGradient>
</defs>
</svg>
