<svg width="852" height="309" viewBox="0 0 852 309" fill="none" xmlns="http://www.w3.org/2000/svg">
<g filter="url(#filter0_d_4738_20)">
<path fill-rule="evenodd" clip-rule="evenodd" d="M143.637 72.124V240.362V250.432V255.682C143.637 257.25 144.822 258.57 146.386 258.69C149.063 258.895 151.769 259 154.5 259C157.123 259 159.724 258.903 162.299 258.713C163.866 258.598 165.057 257.277 165.057 255.705V250.432V240.388V72.0846C179.112 73.8671 192.072 79.1612 203.029 87.0599C204.277 87.9595 206 87.8535 207.088 86.7657L218.036 75.8176C219.318 74.5354 219.212 72.4226 217.77 71.3237C202.146 59.4209 183.068 51.8197 162.302 50.2869C162.301 50.2868 162.3 50.2867 162.299 50.2866C160.453 50.1505 158.595 50.0623 156.724 50.0232C155.984 50.0078 155.243 50 154.5 50C130.637 50 108.643 57.9982 91.0509 71.46C89.6128 72.5604 89.5097 74.6697 90.7901 75.9501L101.734 86.8941C102.824 87.9841 104.551 88.0881 105.799 87.1836C116.713 79.274 129.626 73.9536 143.637 72.124Z" fill="white"/>
</g>
<g filter="url(#filter1_d_4738_20)">
<path fill-rule="evenodd" clip-rule="evenodd" d="M221.945 105.977C221.046 104.729 221.152 103.007 222.239 101.919L233.188 90.9707C234.47 89.6885 236.583 89.7941 237.682 91.2367C251.058 108.797 259 130.721 259 154.5C259 199.464 230.601 237.796 190.761 252.537C188.811 253.258 186.783 251.786 186.783 249.708V233.104C186.783 231.874 187.523 230.767 188.644 230.261C217.498 217.237 237.58 188.213 237.58 154.5C237.58 136.387 231.784 119.628 221.945 105.977Z" fill="white"/>
</g>
<g filter="url(#filter2_d_4738_20)">
<path fill-rule="evenodd" clip-rule="evenodd" d="M75.6854 91.1377C74.4014 89.8537 72.2851 89.9617 71.1878 91.4085C57.8904 108.94 50 130.799 50 154.5C50 199.583 78.5487 237.998 118.554 252.653C120.502 253.367 122.523 251.895 122.523 249.82V233.602V233.241V147.003C122.523 145.313 121.153 143.943 119.463 143.943H111.758H104.163H96.4415C94.8698 143.943 93.5487 145.133 93.4331 146.701C93.2431 149.276 93.1464 151.877 93.1464 154.5C93.1464 157.23 93.2511 159.936 93.4568 162.614C93.5768 164.178 94.8962 165.363 96.4645 165.363H101.102V218.15C82.9554 202.91 71.4202 180.052 71.4202 154.5C71.4202 136.46 77.1699 119.763 86.9367 106.142C87.8313 104.894 87.7233 103.176 86.6377 102.09L75.6854 91.1377Z" fill="white"/>
</g>
<path d="M825.578 169.747C830.571 169.747 834.69 170.371 837.936 171.619C841.209 172.84 843.65 174.712 845.259 177.237C846.868 179.761 847.672 182.979 847.672 186.89C847.672 190.108 847.09 192.798 845.925 194.962C844.76 197.098 843.234 198.832 841.348 200.163C839.461 201.495 837.45 202.521 835.314 203.242L852 230.579H843.761L828.865 205.198H816.216V230.579H809.143V169.747H825.578ZM825.162 175.864H816.216V199.206H825.869C830.835 199.206 834.482 198.194 836.812 196.169C839.17 194.144 840.349 191.162 840.349 187.223C840.349 183.09 839.101 180.163 836.604 178.443C834.136 176.723 830.321 175.864 825.162 175.864Z" fill="white"/>
<path d="M799.431 230.579H765.562V169.747H799.431V175.988H772.635V195.669H797.892V201.827H772.635V224.338H799.431V230.579Z" fill="white"/>
<path d="M755.905 230.579H747.749L714.587 179.484H714.254C714.337 180.843 714.434 182.396 714.545 184.144C714.656 185.864 714.74 187.708 714.795 189.678C714.878 191.619 714.92 193.603 714.92 195.628V230.579H708.346V169.747H716.459L749.497 220.676H749.788C749.733 219.705 749.663 218.332 749.58 216.557C749.497 214.754 749.414 212.826 749.33 210.773C749.275 208.693 749.247 206.765 749.247 204.99V169.747H755.905V230.579Z" fill="white"/>
<path d="M674.14 169.747C679.133 169.747 683.252 170.371 686.497 171.619C689.771 172.84 692.212 174.712 693.82 177.237C695.429 179.761 696.234 182.979 696.234 186.89C696.234 190.108 695.651 192.798 694.486 194.962C693.321 197.098 691.796 198.832 689.909 200.163C688.023 201.495 686.012 202.521 683.876 203.242L700.561 230.579H692.323L677.427 205.198H664.778V230.579H657.704V169.747H674.14ZM673.723 175.864H664.778V199.206H674.431C679.396 199.206 683.044 198.194 685.374 196.169C687.732 194.144 688.911 191.162 688.911 187.223C688.911 183.09 687.662 180.163 685.166 178.443C682.697 176.723 678.883 175.864 673.723 175.864Z" fill="white"/>
<path d="M647.848 200.08C647.848 204.768 647.252 209.04 646.059 212.895C644.866 216.723 643.091 220.024 640.733 222.798C638.403 225.544 635.504 227.666 632.037 229.164C628.57 230.662 624.547 231.411 619.97 231.411C615.255 231.411 611.136 230.662 607.613 229.164C604.118 227.666 601.205 225.531 598.875 222.757C596.572 219.983 594.839 216.668 593.674 212.812C592.536 208.956 591.968 204.685 591.968 199.997C591.968 193.783 592.994 188.332 595.047 183.644C597.1 178.956 600.206 175.309 604.367 172.701C608.556 170.094 613.798 168.79 620.095 168.79C626.115 168.79 631.177 170.08 635.282 172.66C639.416 175.239 642.536 178.873 644.644 183.561C646.78 188.221 647.848 193.728 647.848 200.08ZM599.416 200.08C599.416 205.239 600.151 209.705 601.621 213.478C603.091 217.25 605.338 220.163 608.362 222.216C611.413 224.268 615.283 225.295 619.97 225.295C624.686 225.295 628.542 224.268 631.538 222.216C634.561 220.163 636.794 217.25 638.237 213.478C639.679 209.705 640.4 205.239 640.4 200.08C640.4 192.23 638.75 186.099 635.449 181.689C632.176 177.25 627.058 175.031 620.095 175.031C615.38 175.031 611.496 176.044 608.445 178.069C605.394 180.094 603.119 182.979 601.621 186.723C600.151 190.44 599.416 194.893 599.416 200.08Z" fill="white"/>
<path d="M571.194 175.115C567.838 175.115 564.814 175.698 562.124 176.863C559.461 178 557.186 179.665 555.3 181.856C553.441 184.02 552.013 186.641 551.014 189.72C550.016 192.799 549.516 196.266 549.516 200.122C549.516 205.226 550.307 209.664 551.888 213.437C553.497 217.182 555.882 220.081 559.045 222.133C562.235 224.186 566.215 225.212 570.986 225.212C573.705 225.212 576.257 224.99 578.642 224.547C581.056 224.075 583.4 223.492 585.674 222.799V228.957C583.455 229.789 581.125 230.399 578.684 230.788C576.243 231.204 573.344 231.412 569.988 231.412C563.802 231.412 558.629 230.136 554.468 227.584C550.335 225.004 547.228 221.37 545.147 216.682C543.095 211.995 542.068 206.461 542.068 200.081C542.068 195.476 542.706 191.273 543.982 187.473C545.286 183.645 547.172 180.344 549.641 177.57C552.138 174.796 555.189 172.66 558.795 171.163C562.429 169.637 566.59 168.874 571.278 168.874C574.357 168.874 577.325 169.179 580.182 169.789C583.039 170.4 585.619 171.273 587.921 172.411L585.092 178.402C583.15 177.515 581.014 176.752 578.684 176.114C576.382 175.448 573.885 175.115 571.194 175.115Z" fill="white"/>
<path d="M501.97 230.579H494.896V201.911H462.941V230.579H455.867V169.747H462.941V195.669H494.896V169.747H501.97V230.579Z" fill="white"/>
<path d="M431.187 175.115C427.83 175.115 424.807 175.698 422.116 176.863C419.453 178 417.178 179.665 415.292 181.856C413.434 184.02 412.005 186.641 411.006 189.72C410.008 192.799 409.509 196.266 409.509 200.122C409.509 205.226 410.299 209.664 411.88 213.437C413.489 217.182 415.875 220.081 419.037 222.133C422.227 224.186 426.207 225.212 430.979 225.212C433.697 225.212 436.249 224.99 438.635 224.547C441.048 224.075 443.392 223.492 445.667 222.799V228.957C443.447 229.789 441.117 230.399 438.676 230.788C436.235 231.204 433.336 231.412 429.98 231.412C423.794 231.412 418.621 230.136 414.46 227.584C410.327 225.004 407.22 221.37 405.14 216.682C403.087 211.995 402.061 206.461 402.061 200.081C402.061 195.476 402.699 191.273 403.975 187.473C405.278 183.645 407.165 180.344 409.633 177.57C412.13 174.796 415.181 172.66 418.787 171.163C422.421 169.637 426.582 168.874 431.27 168.874C434.349 168.874 437.317 169.179 440.174 169.789C443.031 170.4 445.611 171.273 447.913 172.411L445.084 178.402C443.142 177.515 441.006 176.752 438.676 176.114C436.374 175.448 433.877 175.115 431.187 175.115Z" fill="white"/>
<path d="M393.566 230.579H359.696V169.747H393.566V175.988H366.77V195.669H392.026V201.827H366.77V224.338H393.566V230.579Z" fill="white"/>
<path d="M330.946 230.579H323.83V175.988H304.69V169.747H350.002V175.988H330.946V230.579Z" fill="white"/>
<path d="M583.999 126.891C583.999 130.192 583.167 133.326 581.502 136.294C579.838 139.235 577.244 141.62 573.722 143.451C570.226 145.282 565.705 146.197 560.157 146.197C557.383 146.197 554.942 146.072 552.834 145.823C550.754 145.573 548.812 145.171 547.009 144.616C545.206 144.033 543.333 143.285 541.392 142.369V127.723C544.693 129.387 548.021 130.663 551.378 131.551C554.734 132.411 557.772 132.841 560.49 132.841C562.127 132.841 563.458 132.647 564.484 132.258C565.539 131.87 566.315 131.343 566.815 130.677C567.314 129.984 567.564 129.193 567.564 128.305C567.564 127.251 567.189 126.364 566.44 125.642C565.719 124.893 564.554 124.117 562.945 123.312C561.336 122.508 559.214 121.509 556.579 120.316C554.332 119.262 552.293 118.181 550.462 117.071C548.659 115.961 547.106 114.699 545.802 113.285C544.526 111.842 543.541 110.164 542.848 108.25C542.154 106.336 541.808 104.075 541.808 101.468C541.808 97.5565 542.765 94.2833 544.679 91.6481C546.62 88.9851 549.311 86.9879 552.751 85.6564C556.218 84.3249 560.213 83.6592 564.734 83.6592C568.701 83.6592 572.265 84.103 575.428 84.9907C578.618 85.8783 581.475 86.8908 583.999 88.0281L578.964 100.719C576.357 99.526 573.791 98.5829 571.267 97.8894C568.742 97.1682 566.398 96.8075 564.235 96.8075C562.82 96.8075 561.655 96.9878 560.74 97.3485C559.852 97.6813 559.186 98.139 558.742 98.7215C558.326 99.3041 558.118 99.9698 558.118 100.719C558.118 101.662 558.479 102.508 559.2 103.257C559.949 104.006 561.183 104.824 562.903 105.712C564.651 106.572 567.023 107.695 570.018 109.082C572.987 110.414 575.511 111.856 577.591 113.409C579.672 114.935 581.253 116.78 582.335 118.943C583.444 121.079 583.999 123.728 583.999 126.891Z" fill="white"/>
<path d="M521.822 145.364H500.268L478.049 102.507H477.675C477.814 103.811 477.938 105.378 478.049 107.209C478.16 109.04 478.257 110.912 478.341 112.826C478.424 114.712 478.465 116.418 478.465 117.944V145.364H463.902V84.5322H485.372L507.508 126.807H507.758C507.675 125.475 507.592 123.936 507.508 122.188C507.425 120.413 507.342 118.624 507.259 116.821C507.203 115.018 507.175 113.423 507.175 112.036V84.5322H521.822V145.364Z" fill="white"/>
<path d="M454.245 145.364H418.129V84.5322H454.245V97.7222H434.564V107.292H452.789V120.482H434.564V131.966H454.245V145.364Z" fill="white"/>
<path d="M370.896 145.364V84.5322H387.332V132.091H410.758V145.364H370.896Z" fill="white"/>
<path d="M334.94 109.748H361.195V142.536C358.06 143.617 354.468 144.505 350.418 145.199C346.368 145.864 342.124 146.197 337.686 146.197C331.833 146.197 326.701 145.06 322.291 142.785C317.88 140.511 314.441 137.057 311.972 132.425C309.503 127.764 308.269 121.884 308.269 114.783C308.269 108.403 309.489 102.896 311.93 98.2639C314.371 93.6037 317.963 90.0114 322.707 87.4872C327.478 84.9352 333.317 83.6592 340.224 83.6592C344.024 83.6592 347.63 84.0198 351.042 84.741C354.454 85.4622 357.422 86.3776 359.947 87.4872L354.746 100.386C352.554 99.3041 350.28 98.4996 347.922 97.9726C345.564 97.4178 343.026 97.1404 340.307 97.1404C336.673 97.1404 333.747 97.9587 331.528 99.5953C329.336 101.232 327.741 103.423 326.743 106.17C325.744 108.888 325.245 111.898 325.245 115.199C325.245 118.971 325.772 122.161 326.826 124.769C327.908 127.348 329.475 129.318 331.528 130.677C333.608 132.009 336.119 132.674 339.059 132.674C340.03 132.674 341.209 132.605 342.596 132.466C344.01 132.328 345.078 132.161 345.8 131.967V122.439H334.94V109.748Z" fill="white"/>
<path d="M528.449 92.2452V85.3386C528.449 82.7224 530.57 80.6016 533.186 80.6016C536.239 80.6016 538.495 83.4471 537.798 86.4196L536.222 93.1439C535.805 94.9246 534.217 96.1837 532.388 96.1837C530.213 96.1837 528.449 94.4204 528.449 92.2452Z" fill="white"/>
<defs>
<filter id="filter0_d_4738_20" x="39.8965" y="0" width="229.032" height="309" filterUnits="userSpaceOnUse" color-interpolation-filters="sRGB">
<feFlood flood-opacity="0" result="BackgroundImageFix"/>
<feColorMatrix in="SourceAlpha" type="matrix" values="0 0 0 0 0 0 0 0 0 0 0 0 0 0 0 0 0 0 127 0" result="hardAlpha"/>
<feOffset/>
<feGaussianBlur stdDeviation="25"/>
<feComposite in2="hardAlpha" operator="out"/>
<feColorMatrix type="matrix" values="0 0 0 0 0 0 0 0 0 0 0 0 0 0 0 0 0 0 0.1 0"/>
<feBlend mode="normal" in2="BackgroundImageFix" result="effect1_dropShadow_4738_20"/>
<feBlend mode="normal" in="SourceGraphic" in2="effect1_dropShadow_4738_20" result="shape"/>
</filter>
<filter id="filter1_d_4738_20" x="136.783" y="40.0771" width="172.217" height="262.646" filterUnits="userSpaceOnUse" color-interpolation-filters="sRGB">
<feFlood flood-opacity="0" result="BackgroundImageFix"/>
<feColorMatrix in="SourceAlpha" type="matrix" values="0 0 0 0 0 0 0 0 0 0 0 0 0 0 0 0 0 0 127 0" result="hardAlpha"/>
<feOffset/>
<feGaussianBlur stdDeviation="25"/>
<feComposite in2="hardAlpha" operator="out"/>
<feColorMatrix type="matrix" values="0 0 0 0 0 0 0 0 0 0 0 0 0 0 0 0 0 0 0.1 0"/>
<feBlend mode="normal" in2="BackgroundImageFix" result="effect1_dropShadow_4738_20"/>
<feBlend mode="normal" in="SourceGraphic" in2="effect1_dropShadow_4738_20" result="shape"/>
</filter>
<filter id="filter2_d_4738_20" x="0" y="40.2441" width="172.522" height="262.592" filterUnits="userSpaceOnUse" color-interpolation-filters="sRGB">
<feFlood flood-opacity="0" result="BackgroundImageFix"/>
<feColorMatrix in="SourceAlpha" type="matrix" values="0 0 0 0 0 0 0 0 0 0 0 0 0 0 0 0 0 0 127 0" result="hardAlpha"/>
<feOffset/>
<feGaussianBlur stdDeviation="25"/>
<feComposite in2="hardAlpha" operator="out"/>
<feColorMatrix type="matrix" values="0 0 0 0 0 0 0 0 0 0 0 0 0 0 0 0 0 0 0.1 0"/>
<feBlend mode="normal" in2="BackgroundImageFix" result="effect1_dropShadow_4738_20"/>
<feBlend mode="normal" in="SourceGraphic" in2="effect1_dropShadow_4738_20" result="shape"/>
</filter>
</defs>
</svg>
